<svg width="1020" height="1000" viewBox="0 0 1020 1000" fill="none" xmlns="http://www.w3.org/2000/svg">
<path d="M1020 873.775C1013.62 887.845 1003.25 898.006 988.895 904.26C975.337 910.513 959.784 913.639 942.238 913.639C915.918 913.639 888.801 908.559 860.887 898.397C833.77 889.017 813.432 879.247 799.873 869.085C794.29 865.177 789.106 859.315 784.321 851.498C780.333 842.9 775.149 835.866 768.768 830.394C748.032 810.853 724.903 788.185 699.381 762.391C673.859 736.597 649.533 710.802 626.404 685.008C603.275 658.432 584.532 634.983 570.176 614.66C565.391 632.638 562.998 654.133 562.998 679.146C563.795 704.158 564.992 729.953 566.587 756.529C568.182 776.07 569.378 795.611 570.176 815.152C570.974 833.911 570.974 852.28 570.176 870.258C568.581 899.179 562.998 924.973 553.427 947.641C543.856 971.09 526.31 988.286 500.788 999.229C495.205 992.976 488.426 987.895 480.45 983.987C473.272 980.079 466.493 976.562 460.113 973.435C432.996 962.492 407.474 949.986 383.547 935.916C360.418 922.628 334.896 910.513 306.981 899.57C305.386 888.627 299.005 880.028 287.84 873.775C276.674 866.74 265.109 859.706 253.146 852.671C241.182 845.636 232.409 836.647 226.826 825.704C234.004 826.486 237.992 825.313 238.79 822.187C239.587 819.06 239.986 817.497 239.986 817.497C254.342 823.75 271.888 832.348 292.625 843.291C314.159 854.234 336.092 862.441 358.424 867.913C371.982 871.04 385.142 872.603 397.903 872.603C410.664 872.603 422.627 870.258 433.793 865.568C447.352 859.315 457.72 849.544 464.898 836.256C472.076 822.968 476.861 807.726 479.254 790.53C483.242 767.862 484.039 743.241 481.647 716.665C480.052 690.089 478.058 666.248 475.665 645.144C474.867 642.018 474.07 638.891 473.272 635.764C473.272 632.638 473.272 629.902 473.272 627.557C422.228 665.076 370.387 704.158 317.748 744.804C265.907 785.449 209.28 822.578 147.868 856.188C147.07 856.188 145.874 856.579 144.279 857.361C119.554 870.649 96.8238 881.201 76.0873 889.017C55.3507 896.052 35.4117 893.707 16.2702 881.983C16.2702 881.983 15.8715 881.983 15.0739 881.983C10.2885 878.856 5.90195 875.729 1.91414 872.603C-1.2761 869.476 -0.478535 866.741 4.30683 864.396C8.29463 862.832 11.4849 861.269 13.8776 859.706C17.0678 857.361 20.258 855.407 23.4483 853.843C29.0312 849.153 35.0129 845.245 41.3934 842.119C48.5714 838.992 57.7434 837.82 68.9092 838.601C69.7068 837.82 70.9031 836.647 72.4982 835.084C78.0812 827.267 85.2592 819.451 94.0324 811.635C102.806 803.818 111.977 803.036 121.548 809.29C123.941 796.002 129.125 787.404 137.101 783.495C145.874 778.805 154.248 774.897 162.224 771.771C170.199 767.862 174.187 760.046 174.187 748.321C185.353 747.54 196.12 745.586 206.488 742.459C216.857 738.551 222.44 729.171 223.237 714.32C247.164 704.158 267.901 690.87 285.447 674.456C302.993 658.041 319.742 640.845 335.693 622.867C351.644 604.889 368.393 587.693 385.939 571.279C374.774 566.589 364.007 565.807 353.638 568.934C343.27 572.06 333.3 576.359 323.73 581.831C318.944 584.176 313.76 586.521 308.177 588.866C303.392 590.429 298.607 591.992 293.821 593.555C257.134 603.717 224.434 599.809 195.721 581.831C167.009 563.853 142.285 540.404 121.548 511.483C155.046 509.138 192.132 507.575 232.808 506.793C274.281 506.011 316.153 503.666 358.424 499.758C401.492 495.068 441.37 487.252 478.058 476.309C474.867 452.859 468.487 429.019 458.916 404.788C450.143 379.776 440.572 356.326 430.204 334.44C460.511 326.624 486.432 329.359 507.966 342.647C530.298 355.154 546.249 372.741 555.82 395.408C566.188 418.076 568.182 440.744 561.802 463.412C571.372 473.573 586.127 478.654 606.066 478.654C626.005 477.872 646.343 476.7 667.079 475.136C679.84 473.573 691.804 472.401 702.97 471.619C714.933 470.837 725.301 471.228 734.075 472.791C738.86 474.355 741.651 473.964 742.449 471.619C744.044 469.274 745.24 466.929 746.038 464.584C746.836 459.113 748.431 455.986 750.823 455.204C770.762 458.331 793.094 462.239 817.819 466.929C843.34 471.619 867.267 478.263 889.599 486.861C912.728 495.459 929.876 507.965 941.042 524.38C912.329 533.76 883.218 538.84 853.709 539.622C824.996 540.404 795.885 540.404 766.376 539.622C738.461 538.84 710.148 538.84 681.436 539.622C652.723 539.622 623.214 543.139 592.906 550.174C637.57 593.165 685.025 630.684 735.271 662.731C785.517 693.997 842.144 719.791 905.151 740.114C918.71 751.839 933.465 762.782 949.416 772.943C965.367 782.323 979.324 793.657 991.288 806.945C1000.06 815.543 1006.84 825.313 1011.63 836.256C1016.41 847.199 1019.2 859.706 1020 873.775ZM918.311 239.47C906.348 250.413 892.789 256.666 877.636 258.23C862.482 259.793 846.132 260.575 828.585 260.575C815.825 260.575 802.266 260.965 787.91 261.747C774.351 261.747 760.793 264.483 747.234 269.954C744.044 284.806 742.05 299.266 741.253 313.336C741.253 326.624 741.253 339.521 741.253 352.027C741.253 370.005 740.455 387.983 738.86 405.961C738.062 423.157 733.277 440.744 724.504 458.722C694.197 451.687 673.46 440.744 662.294 425.893C651.128 410.26 646.343 391.109 647.938 368.442C649.533 345.774 653.122 319.98 658.705 291.059C637.969 298.094 615.637 300.829 591.71 299.266C567.783 297.703 545.452 291.84 524.715 281.679C504.776 270.736 489.224 255.103 478.058 234.78C474.07 236.344 474.469 239.079 479.254 242.988C481.647 245.333 483.641 247.678 485.236 250.022C487.628 252.367 488.426 255.885 487.628 260.575C466.094 266.046 443.763 270.736 420.633 274.644C397.504 278.553 375.571 284.024 354.835 291.059C350.847 302.002 348.055 314.508 346.46 328.578C345.663 342.647 344.865 357.108 344.068 371.959C343.27 393.845 341.276 414.95 338.086 435.272C335.693 455.595 328.116 470.837 315.355 480.999C251.551 449.733 232.409 393.454 257.931 312.163C249.158 309.818 239.587 309.818 229.219 312.163C218.851 313.727 208.084 316.071 196.918 319.198C187.347 322.325 177.776 325.06 168.205 327.405C158.635 329.75 149.064 330.532 139.493 329.75C110.781 328.187 88.4495 318.026 72.4982 299.266C56.547 279.725 44.9824 260.965 37.8044 242.988C51.3629 240.643 65.3202 239.861 79.6763 240.643C94.0324 240.643 108.787 241.034 123.941 241.815C147.868 242.597 171.396 242.597 194.525 241.815C218.452 241.034 241.182 235.953 262.716 226.573C264.312 213.285 264.312 196.089 262.716 174.984C261.919 153.098 258.729 135.511 253.146 122.224C240.385 116.752 228.023 114.407 216.059 115.189C204.096 115.97 191.734 118.315 178.973 122.224C164.616 115.189 150.26 107.372 135.904 98.7741C121.548 89.3944 110.382 78.8422 102.407 67.1175C94.4311 54.6112 92.0385 40.1507 95.2287 23.7362C117.56 28.4261 144.279 32.7251 175.384 36.6333C206.488 39.7599 237.593 39.3691 268.698 35.4609C300.601 30.771 327.718 19.4371 350.049 1.45927C374.774 -0.103996 399.498 4.58588 424.222 15.5289C448.947 25.6903 466.892 42.4957 478.058 65.945C456.524 73.7615 433.394 80.4054 408.67 85.877C384.743 90.5668 362.411 97.2108 341.675 105.809C345.663 117.534 347.258 127.695 346.46 136.293C345.663 144.11 344.466 152.708 342.871 162.087C341.276 166.777 340.08 171.858 339.282 177.329C338.485 182.801 337.687 189.054 336.89 196.089C357.626 196.871 381.553 199.606 408.67 204.296C436.585 208.204 458.119 216.803 473.272 230.091C478.058 230.091 480.45 228.918 480.45 226.573C481.248 223.447 481.248 220.32 480.45 217.193C479.653 211.722 480.45 208.986 482.843 208.986C509.163 208.986 531.095 208.986 548.642 208.986C566.188 208.986 582.937 208.595 598.888 207.814C614.839 207.032 633.183 205.86 653.92 204.296C658.705 194.916 661.098 183.192 661.098 169.122C661.098 155.053 659.503 140.983 656.312 126.913C653.92 112.844 650.331 101.51 645.545 92.9118C612.048 103.073 581.342 99.9466 553.427 83.532C525.513 66.3358 509.163 42.1049 504.377 10.839C538.672 22.5637 572.967 27.2536 607.263 24.9087C642.355 21.7821 676.251 17.483 708.951 12.0115C712.939 11.2299 716.927 10.4482 720.915 9.66658C725.7 8.88495 730.087 8.10329 734.075 7.32161C769.965 1.06848 803.462 -0.885631 834.567 1.45927C866.47 3.80423 894.384 18.2647 918.311 44.8406C891.194 58.9102 861.285 66.7267 828.585 68.29C796.683 69.8533 763.584 74.9339 729.289 83.532C738.86 96.82 744.443 114.407 746.038 136.293C747.633 157.397 746.437 175.766 742.449 191.399C776.744 186.709 809.843 186.318 841.745 190.227C874.445 194.135 899.967 210.549 918.311 239.47Z" fill="white"/>
</svg>
